<?xml version="1.0" encoding="UTF-8"?>
<svg id="Camada_2" xmlns="http://www.w3.org/2000/svg" version="1.1" viewBox="0 0 181.6 45.8">
  <!-- Generator: Adobe Illustrator 29.8.4, SVG Export Plug-In . SVG Version: 2.1.1 Build 6)  -->
  <defs>
    <style>
      .st0 {
        fill: #d2a246;
      }

      .st1 {
        fill: #1e3159;
      }
    </style>
  </defs>
  <g id="Camada_1-2">
    <path class="st0" d="M22.1,19.2c.9,3.7,3.6,6.8,6.9,8.5.1-3.9,0-7.9,0-11.8,0-3.4-1.3-6.7-3.7-9.2-3.1,3.2-4.5,8.1-3.3,12.4M9.1,4.7c-3.2,1.9-5.6,5.4-6.2,9.1-.6,3.4.2,7,2.2,9.7,1.9,2.7,4.9,4.6,8.2,5.3,3.4.7,6.9,0,9.8-1.9-2.3-2.6-3.9-5.8-4.2-9.3-.5-4.5,1.1-9.3,4.3-12.6-4.1-2.8-9.8-3-14.1-.3M9,1.6C14.1-.9,20.7-.4,25.3,3.1,28.4.9,32.3-.3,36.2,0c5.5.4,10.7,4,13,9,1.2,2.6,1.7,5.4,1.5,8.2h-12.1v-2.8c3.1,0,6.2,0,9.3,0-.5-4.2-3.1-8.1-6.8-10.1-4.2-2.3-9.6-2.1-13.5.6,2.8,2.9,4.3,6.9,4.3,10.9v12.8c4,1,8.5-.1,11.6-2.9,1.3-1.1,2.3-2.5,3.2-4,.8.4,1.6.8,2.4,1.2-2,4-5.9,7.2-10.3,8.2-4.3,1.1-9,.4-12.6-2.1-.3-.1-.7-.6-1-.3-2.8,1.9-6.1,3-9.4,2.9-4.3,0-8.5-1.9-11.4-5.1C.9,23.1-.6,17.9.3,13,1.1,8.1,4.5,3.7,9,1.6"/>
    <g>
      <path class="st1" d="M69.6,2.6c3.3,0,5.9.9,7.8,2.6,1.9,1.8,2.9,4.2,2.9,7.3v14.6h-4.3v-3.3h-.2c-1.8,2.7-4.3,4.1-7.4,4.1s-4.8-.8-6.6-2.3-2.6-3.5-2.6-5.8.9-4.4,2.8-5.9c1.9-1.4,4.3-2.2,7.4-2.2s4.8.5,6.6,1.4v-1c0-1.6-.6-2.9-1.8-3.9-1.2-1.1-2.7-1.6-4.3-1.6-2.5,0-4.5,1.1-5.9,3.1l-3.9-2.5c2.2-3.1,5.4-4.7,9.6-4.7h0ZM63.8,19.9c0,1.2.5,2.1,1.5,2.9,1,.8,2.1,1.2,3.5,1.2s3.6-.7,5-2.1c1.5-1.4,2.2-3,2.2-4.9-1.4-1.1-3.3-1.6-5.8-1.6s-3.3.4-4.5,1.3c-1.2.9-1.8,2-1.8,3.2h0Z"/>
      <path class="st1" d="M103.2,20.6c0,2.1-.9,3.8-2.7,5.2-1.8,1.4-4.1,2.1-6.8,2.1s-4.5-.6-6.3-1.9c-1.8-1.2-3.1-2.9-3.9-4.9l4-1.7c.6,1.4,1.4,2.5,2.6,3.3,1.1.8,2.3,1.2,3.7,1.2s2.6-.3,3.6-.9,1.4-1.3,1.4-2.2c0-1.5-1.2-2.6-3.5-3.4l-4.1-1c-4.6-1.2-6.9-3.4-6.9-6.7s.9-3.9,2.6-5.2,4-2,6.8-2,4,.5,5.7,1.5,2.9,2.3,3.6,4l-4,1.6c-.4-1-1.2-1.8-2.2-2.3s-2.2-.8-3.4-.8-2.2.3-3.1.9-1.4,1.3-1.4,2.1c0,1.4,1.3,2.3,3.8,2.9l3.6.9c4.7,1.2,7.1,3.5,7.1,7.1h0Z"/>
      <path class="st1" d="M119.2,28c-1.8,0-3.3-.4-4.8-1.1-1.4-.7-2.6-1.7-3.3-3h-.2l.2,3.3v10.5h-4.5V3.4h4.3v3.3h.2c.8-1.2,1.9-2.2,3.3-3,1.4-.7,3-1.1,4.8-1.1,3.1,0,5.8,1.2,7.9,3.7,2.2,2.5,3.3,5.5,3.3,9s-1.1,6.5-3.3,9c-2.2,2.5-4.8,3.7-7.9,3.7h0ZM118.5,23.9c2.1,0,3.9-.8,5.4-2.4,1.4-1.6,2.2-3.6,2.2-6.2s-.7-4.5-2.2-6.2-3.2-2.4-5.4-2.4-4,.8-5.4,2.4c-1.4,1.6-2.1,3.7-2.1,6.2s.7,4.6,2.1,6.2c1.4,1.6,3.3,2.4,5.4,2.4h0Z"/>
      <path class="st1" d="M145.2,28c-3.5,0-6.4-1.2-8.6-3.6-2.3-2.4-3.4-5.4-3.4-9.1s1.1-6.6,3.3-9c2.2-2.4,5-3.6,8.4-3.6s6.3,1.1,8.4,3.4c2.1,2.3,3.1,5.5,3.1,9.6v.5h-18.7c0,2.3.8,4.2,2.3,5.6,1.5,1.4,3.3,2.1,5.3,2.1s5.1-1.4,6.7-4.3l4,1.9c-1.1,2-2.6,3.6-4.4,4.7s-4,1.7-6.4,1.7h0ZM138.1,12.4h13.6c-.1-1.6-.8-3-2-4.1-1.2-1.1-2.8-1.6-4.9-1.6s-3.1.5-4.3,1.6c-1.2,1-2,2.4-2.4,4.2h0Z"/>
      <path class="st1" d="M160.6,3.4h4.3v3.3h.2c.7-1.2,1.7-2.1,3.1-2.9s2.9-1.2,4.4-1.2c2.9,0,5.1.8,6.7,2.5s2.4,4,2.4,7.1v14.9h-4.5v-14.6c-.1-3.9-2.1-5.8-5.9-5.8s-3.3.7-4.5,2.2c-1.2,1.4-1.8,3.2-1.8,5.2v13.1h-4.5V3.4h0Z"/>
    </g>
    <g>
      <path class="st1" d="M119.9,43.1c-1,0-1.8-.3-2.4-1-.6-.7-.9-1.5-.9-2.5s.3-1.8.9-2.5,1.4-1,2.3-1,1.8.3,2.3,1,.9,1.5.9,2.7h0c0,.1-5.2.1-5.2.1,0,.7.2,1.2.7,1.6.4.4.9.6,1.5.6s1.4-.4,1.9-1.2l1.1.5c-.3.6-.7,1-1.2,1.3-.5.3-1.1.5-1.8.5,0,0,0,0,0,0ZM117.9,38.8h3.8c0-.5-.2-.8-.6-1.1s-.8-.5-1.3-.5-.9.1-1.2.4c-.3.3-.6.7-.7,1.2Z"/>
      <path class="st1" d="M129.2,41c0,.6-.2,1.1-.8,1.5s-1.1.6-1.9.6-1.2-.2-1.8-.5c-.5-.3-.9-.8-1.1-1.4l1.1-.5c.2.4.4.7.7.9.3.2.7.3,1,.3s.7,0,1-.3c.3-.2.4-.4.4-.6,0-.4-.3-.7-1-.9l-1.1-.3c-1.3-.3-1.9-.9-1.9-1.9s.2-1.1.7-1.5c.5-.4,1.1-.5,1.9-.5s1.1.1,1.6.4c.5.3.8.7,1,1.1l-1.1.5c-.1-.3-.3-.5-.6-.7-.3-.2-.6-.2-.9-.2s-.6,0-.9.2-.4.4-.4.6c0,.4.3.7,1.1.8l1,.3c1.3.3,2,1,2,2h0Z"/>
      <path class="st1" d="M132.9,43c-.5,0-1-.2-1.3-.5-.4-.3-.5-.8-.5-1.4v-3.7h-1.2v-1.1h1.2v-2h1.2v2h1.6v1.1h-1.6v3.3c0,.4,0,.7.3.9s.4.2.6.2.2,0,.3,0,.2,0,.3,0l.4,1.1c-.3.1-.7.2-1.1.2h0s0,0,0,0Z"/>
      <path class="st1" d="M137.4,36c.9,0,1.6.2,2.2.7.5.5.8,1.2.8,2v4.1h-1.2v-.9h0c-.5.8-1.2,1.1-2,1.1s-1.3-.2-1.8-.7-.7-1-.7-1.6.3-1.2.8-1.6c.5-.4,1.2-.6,2.1-.6s1.3.1,1.8.4v-.3c0-.4-.2-.8-.5-1.1s-.7-.5-1.2-.5c-.7,0-1.2.3-1.6.9l-1.1-.7c.6-.9,1.5-1.3,2.7-1.3h0s0,0,0,0h0ZM135.8,40.8c0,.3.1.6.4.8s.6.3,1,.3,1-.2,1.4-.6c.4-.4.6-.8.6-1.4-.4-.3-.9-.5-1.6-.5s-.9.1-1.3.4-.5.5-.5.9h0Z"/>
      <path class="st1" d="M143,42.8h-1.2v-6.6h1.2v.9h0c.2-.3.5-.6.9-.8s.8-.3,1.2-.3.9.1,1.3.3.6.5.8.9c.6-.8,1.3-1.3,2.3-1.3s1.4.2,1.8.7c.4.5.6,1.1.6,2v4.1h-1.2v-3.9c0-.6-.1-1.1-.3-1.3s-.6-.4-1.1-.4-.9.2-1.2.6-.5.9-.5,1.4v3.6h-1.2v-3.9c0-.6-.1-1.1-.3-1.3s-.6-.4-1.1-.4-.9.2-1.2.6-.5.9-.5,1.4v3.6h0Z"/>
      <path class="st1" d="M156.6,43.1c-.5,0-.9,0-1.3-.3s-.7-.5-.9-.8h0v.9c0,0,0,2.9,0,2.9h-1.2v-9.5h1.2v.9h0c.2-.3.5-.6.9-.8s.8-.3,1.3-.3c.9,0,1.6.3,2.2,1,.6.7.9,1.5.9,2.5s-.3,1.8-.9,2.5c-.6.7-1.3,1-2.2,1h0ZM156.4,41.9c.6,0,1.1-.2,1.5-.7.4-.4.6-1,.6-1.7s-.2-1.3-.6-1.7c-.4-.5-.9-.7-1.5-.7s-1.1.2-1.5.7c-.4.5-.6,1-.6,1.7s.2,1.3.6,1.7c.4.4.9.7,1.5.7Z"/>
      <path class="st1" d="M163.4,36c.9,0,1.6.2,2.2.7.5.5.8,1.2.8,2v4.1h-1.2v-.9h0c-.5.8-1.2,1.1-2,1.1s-1.3-.2-1.8-.7-.7-1-.7-1.6.3-1.2.8-1.6c.5-.4,1.2-.6,2.1-.6s1.3.1,1.8.4v-.3c0-.4-.2-.8-.5-1.1s-.7-.5-1.2-.5c-.7,0-1.2.3-1.6.9l-1.1-.7c.6-.9,1.5-1.3,2.7-1.3h0s0,0,0,0h0ZM161.8,40.8c0,.3.1.6.4.8s.6.3,1,.3,1-.2,1.4-.6c.4-.4.6-.8.6-1.4-.4-.3-.9-.5-1.6-.5s-.9.1-1.3.4-.5.5-.5.9h0Z"/>
      <path class="st1" d="M169,42.8h-1.2v-6.6h1.2v1.1h0c.1-.3.4-.7.8-.9s.8-.4,1.1-.4.7,0,.9.2l-.4,1.2c-.1,0-.4,0-.7,0s-.9.2-1.2.6-.5.8-.5,1.3v3.6h0Z"/>
      <path class="st1" d="M174.2,34c0,.2,0,.5-.3.6s-.4.3-.6.3-.4,0-.6-.3c-.2-.2-.3-.4-.3-.6s0-.5.3-.6.4-.3.6-.3.4,0,.6.3.3.4.3.6ZM174,36.2v6.6h-1.2v-6.6h1.2Z"/>
      <path class="st1" d="M178,36c.9,0,1.6.2,2.2.7.5.5.8,1.2.8,2v4.1h-1.2v-.9h0c-.5.8-1.2,1.1-2,1.1s-1.3-.2-1.8-.7-.7-1-.7-1.6.3-1.2.8-1.6c.5-.4,1.2-.6,2.1-.6s1.3.1,1.8.4v-.3c0-.4-.2-.8-.5-1.1s-.7-.5-1.2-.5c-.7,0-1.2.3-1.6.9l-1.1-.7c.6-.9,1.5-1.3,2.7-1.3h0s0,0,0,0h0ZM176.4,40.8c0,.3.1.6.4.8s.6.3,1,.3,1-.2,1.4-.6c.4-.4.6-.8.6-1.4-.4-.3-.9-.5-1.6-.5s-.9.1-1.3.4-.5.5-.5.9h0Z"/>
    </g>
  </g>
</svg>